<svg width="24" height="24" viewBox="0 0 24 24" fill="none" xmlns="http://www.w3.org/2000/svg">
<path d="M19.3336 0.182129H4.66641C4.49974 0.182129 4.3414 0.27355 4.24973 0.428967L0.082924 7.15759C-0.0379135 7.35872 -0.025413 7.62384 0.112092 7.80669L11.6125 23.3849C11.8125 23.6546 12.1875 23.6546 12.3875 23.3849L23.8879 7.80669C24.0254 7.61927 24.0379 7.35872 23.9171 7.15759L19.7544 0.428967C19.6586 0.27355 19.5044 0.182129 19.3336 0.182129ZM18.5294 2.37625L21.167 6.76448H18.3169L16.1626 2.37625H18.5294ZM10.1083 2.37625H13.8876L16.0418 6.76448H7.95819L10.1083 2.37625ZM5.47061 2.37625H7.83736L5.68312 6.76448H2.83302L5.47061 2.37625ZM3.67888 8.9586H5.82062L8.66655 16.2723L3.67888 8.9586ZM7.96653 8.9586H16.0335L12 20.08L7.96653 8.9586ZM15.3334 16.2723L18.1752 8.9586H20.317L15.3334 16.2723Z" fill="#FD9CC9"/>
</svg>